# Blender v2.91.0 OBJ File: 'sigh.blend'
# www.blender.org
mtllib segmentRueGauche4.mtl
o AsphaltLeft.004_Cube.007
v -13.000000 0.014999 7.000000
v -13.000000 0.064999 7.000000
v -13.000000 0.064999 5.000000
v -13.000000 0.014999 5.000000
v -11.000000 0.064999 5.000000
v -11.000000 0.014999 5.000000
v -11.000000 0.064999 7.000000
v -11.000000 0.014999 7.000000
vt 0.375000 0.000000
vt 0.625000 0.000000
vt 0.625000 0.250000
vt 0.375000 0.250000
vt 0.625000 0.500000
vt 0.375000 0.500000
vt 0.625000 0.750000
vt 0.375000 0.750000
vt 0.625000 1.000000
vt 0.375000 1.000000
vt 0.125000 0.500000
vt 0.125000 0.750000
vt 0.492118 0.672255
vt 0.652299 0.672255
vt 0.652299 1.001000
vt 0.492118 1.001000
vn -1.0000 0.0000 0.0000
vn 0.0000 0.0000 -1.0000
vn 1.0000 0.0000 0.0000
vn 0.0000 0.0000 1.0000
vn 0.0000 -1.0000 -0.0000
vn 0.0000 1.0000 0.0000
usemtl Matériau.003
s 1
f 1/1/1 2/2/1 3/3/1 4/4/1
f 4/4/2 3/3/2 5/5/2 6/6/2
f 6/6/3 5/5/3 7/7/3 8/8/3
f 8/8/4 7/7/4 2/9/4 1/10/4
f 4/11/5 6/6/5 8/8/5 1/12/5
f 5/13/6 3/14/6 2/15/6 7/16/6
